<mxfile host="Electron" agent="Mozilla/5.0 (Windows NT 10.0; Win64; x64) AppleWebKit/537.36 (KHTML, like Gecko) draw.io/24.7.17 Chrome/128.0.6613.36 Electron/32.0.1 Safari/537.36" version="24.7.17">
  <diagram name="Page-1" id="R22gF4NwtDf4SeD4dbSe">
    <mxGraphModel dx="1563" dy="938" grid="1" gridSize="10" guides="1" tooltips="1" connect="1" arrows="1" fold="1" page="1" pageScale="1" pageWidth="850" pageHeight="1100" math="0" shadow="0">
      <root>
        <mxCell id="0" />
        <mxCell id="1" parent="0" />
        <mxCell id="2x6yvKbN-gAQXvTAyG_4-3" value="" style="edgeStyle=orthogonalEdgeStyle;rounded=0;orthogonalLoop=1;jettySize=auto;html=1;labelBackgroundColor=none;fontColor=default;" edge="1" parent="1" source="2x6yvKbN-gAQXvTAyG_4-1" target="2x6yvKbN-gAQXvTAyG_4-2">
          <mxGeometry relative="1" as="geometry" />
        </mxCell>
        <mxCell id="2x6yvKbN-gAQXvTAyG_4-1" value="&lt;span style=&quot;font-size: 24px;&quot;&gt;start&lt;/span&gt;" style="strokeWidth=2;html=1;shape=mxgraph.flowchart.start_2;whiteSpace=wrap;labelBackgroundColor=none;" vertex="1" parent="1">
          <mxGeometry x="330" y="40" width="200" height="80" as="geometry" />
        </mxCell>
        <mxCell id="2x6yvKbN-gAQXvTAyG_4-2" value="&lt;span style=&quot;font-size: 24px;&quot;&gt;read n&lt;/span&gt;" style="shape=parallelogram;perimeter=parallelogramPerimeter;whiteSpace=wrap;html=1;fixedSize=1;strokeWidth=2;labelBackgroundColor=none;" vertex="1" parent="1">
          <mxGeometry x="320" y="200" width="220" height="70" as="geometry" />
        </mxCell>
        <mxCell id="2x6yvKbN-gAQXvTAyG_4-13" value="" style="edgeStyle=orthogonalEdgeStyle;rounded=0;orthogonalLoop=1;jettySize=auto;html=1;labelBackgroundColor=none;fontColor=default;" edge="1" parent="1" target="2x6yvKbN-gAQXvTAyG_4-12">
          <mxGeometry relative="1" as="geometry">
            <mxPoint x="430" y="575" as="sourcePoint" />
          </mxGeometry>
        </mxCell>
        <mxCell id="2x6yvKbN-gAQXvTAyG_4-10" value="" style="edgeStyle=orthogonalEdgeStyle;rounded=0;orthogonalLoop=1;jettySize=auto;html=1;labelBackgroundColor=none;fontColor=default;" edge="1" parent="1" source="2x6yvKbN-gAQXvTAyG_4-8">
          <mxGeometry relative="1" as="geometry">
            <mxPoint x="430" y="480" as="targetPoint" />
            <Array as="points">
              <mxPoint x="430" y="470" />
              <mxPoint x="430" y="470" />
            </Array>
          </mxGeometry>
        </mxCell>
        <mxCell id="2x6yvKbN-gAQXvTAyG_4-55" style="edgeStyle=orthogonalEdgeStyle;rounded=0;orthogonalLoop=1;jettySize=auto;html=1;exitX=1;exitY=0.5;exitDx=0;exitDy=0;entryX=0.578;entryY=-0.04;entryDx=0;entryDy=0;entryPerimeter=0;" edge="1" parent="1" source="2x6yvKbN-gAQXvTAyG_4-12" target="2x6yvKbN-gAQXvTAyG_4-49">
          <mxGeometry relative="1" as="geometry">
            <mxPoint x="720" y="547" as="targetPoint" />
          </mxGeometry>
        </mxCell>
        <mxCell id="2x6yvKbN-gAQXvTAyG_4-59" value="" style="edgeStyle=orthogonalEdgeStyle;rounded=0;orthogonalLoop=1;jettySize=auto;html=1;" edge="1" parent="1" source="2x6yvKbN-gAQXvTAyG_4-12" target="2x6yvKbN-gAQXvTAyG_4-36">
          <mxGeometry relative="1" as="geometry" />
        </mxCell>
        <mxCell id="2x6yvKbN-gAQXvTAyG_4-12" value="&lt;span style=&quot;font-size: 24px;&quot;&gt;is i&amp;lt;=n?&lt;/span&gt;" style="rhombus;whiteSpace=wrap;html=1;strokeWidth=2;labelBackgroundColor=none;" vertex="1" parent="1">
          <mxGeometry x="345" y="480" width="170" height="132.5" as="geometry" />
        </mxCell>
        <mxCell id="2x6yvKbN-gAQXvTAyG_4-18" value="" style="edgeStyle=orthogonalEdgeStyle;rounded=0;orthogonalLoop=1;jettySize=auto;html=1;labelBackgroundColor=none;fontColor=default;" edge="1" parent="1" source="2x6yvKbN-gAQXvTAyG_4-2" target="2x6yvKbN-gAQXvTAyG_4-8">
          <mxGeometry relative="1" as="geometry">
            <mxPoint x="430" y="270" as="sourcePoint" />
            <mxPoint x="440" y="400" as="targetPoint" />
          </mxGeometry>
        </mxCell>
        <mxCell id="2x6yvKbN-gAQXvTAyG_4-8" value="&lt;span style=&quot;font-size: 24px;&quot;&gt;i=1&lt;/span&gt;&lt;div&gt;&lt;span style=&quot;font-size: 24px;&quot;&gt;fact=1&lt;/span&gt;&lt;/div&gt;" style="rounded=1;whiteSpace=wrap;html=1;strokeWidth=2;labelBackgroundColor=none;" vertex="1" parent="1">
          <mxGeometry x="315" y="350" width="230" height="70" as="geometry" />
        </mxCell>
        <mxCell id="2x6yvKbN-gAQXvTAyG_4-38" value="" style="edgeStyle=orthogonalEdgeStyle;rounded=0;orthogonalLoop=1;jettySize=auto;html=1;" edge="1" parent="1" source="2x6yvKbN-gAQXvTAyG_4-36">
          <mxGeometry relative="1" as="geometry">
            <mxPoint x="430" y="880" as="targetPoint" />
            <Array as="points">
              <mxPoint x="430" y="849" />
              <mxPoint x="431" y="880" />
            </Array>
          </mxGeometry>
        </mxCell>
        <mxCell id="2x6yvKbN-gAQXvTAyG_4-36" value="&lt;font style=&quot;font-size: 24px;&quot;&gt;&lt;font style=&quot;&quot;&gt;fact=fact&lt;/font&gt;*i&lt;/font&gt;" style="rounded=1;whiteSpace=wrap;html=1;strokeWidth=2;labelBackgroundColor=none;" vertex="1" parent="1">
          <mxGeometry x="370" y="710" width="120" height="60" as="geometry" />
        </mxCell>
        <mxCell id="2x6yvKbN-gAQXvTAyG_4-45" style="edgeStyle=orthogonalEdgeStyle;rounded=0;orthogonalLoop=1;jettySize=auto;html=1;" edge="1" parent="1" source="2x6yvKbN-gAQXvTAyG_4-39">
          <mxGeometry relative="1" as="geometry">
            <mxPoint x="180" y="910" as="targetPoint" />
          </mxGeometry>
        </mxCell>
        <mxCell id="2x6yvKbN-gAQXvTAyG_4-39" value="&lt;font style=&quot;font-size: 24px;&quot;&gt;i=i+1&lt;/font&gt;" style="whiteSpace=wrap;html=1;rounded=1;strokeWidth=2;labelBackgroundColor=none;" vertex="1" parent="1">
          <mxGeometry x="370" y="880" width="120" height="60" as="geometry" />
        </mxCell>
        <mxCell id="2x6yvKbN-gAQXvTAyG_4-46" value="" style="endArrow=classic;html=1;rounded=0;" edge="1" parent="1">
          <mxGeometry width="50" height="50" relative="1" as="geometry">
            <mxPoint x="180" y="910" as="sourcePoint" />
            <mxPoint x="180" y="550" as="targetPoint" />
          </mxGeometry>
        </mxCell>
        <mxCell id="2x6yvKbN-gAQXvTAyG_4-47" value="" style="endArrow=classic;html=1;rounded=0;entryX=0;entryY=0.5;entryDx=0;entryDy=0;" edge="1" parent="1" target="2x6yvKbN-gAQXvTAyG_4-12">
          <mxGeometry width="50" height="50" relative="1" as="geometry">
            <mxPoint x="180" y="546" as="sourcePoint" />
            <mxPoint x="450" y="580" as="targetPoint" />
            <Array as="points" />
          </mxGeometry>
        </mxCell>
        <mxCell id="2x6yvKbN-gAQXvTAyG_4-51" value="" style="edgeStyle=orthogonalEdgeStyle;rounded=0;orthogonalLoop=1;jettySize=auto;html=1;" edge="1" parent="1" source="2x6yvKbN-gAQXvTAyG_4-49" target="2x6yvKbN-gAQXvTAyG_4-50">
          <mxGeometry relative="1" as="geometry" />
        </mxCell>
        <mxCell id="2x6yvKbN-gAQXvTAyG_4-49" value="&lt;font style=&quot;font-size: 24px;&quot;&gt;print fact&lt;/font&gt;" style="shape=parallelogram;html=1;strokeWidth=2;perimeter=parallelogramPerimeter;whiteSpace=wrap;rounded=1;arcSize=12;size=0.23;" vertex="1" parent="1">
          <mxGeometry x="625" y="710" width="170" height="60" as="geometry" />
        </mxCell>
        <mxCell id="2x6yvKbN-gAQXvTAyG_4-50" value="&lt;font style=&quot;font-size: 24px;&quot;&gt;stop&lt;/font&gt;" style="strokeWidth=2;html=1;shape=mxgraph.flowchart.start_1;whiteSpace=wrap;" vertex="1" parent="1">
          <mxGeometry x="650" y="860" width="120" height="70" as="geometry" />
        </mxCell>
        <mxCell id="2x6yvKbN-gAQXvTAyG_4-56" value="&lt;font style=&quot;font-size: 18px;&quot;&gt;No&lt;/font&gt;" style="text;html=1;align=center;verticalAlign=middle;resizable=0;points=[];autosize=1;strokeColor=none;fillColor=none;" vertex="1" parent="1">
          <mxGeometry x="560" y="510" width="50" height="40" as="geometry" />
        </mxCell>
        <mxCell id="2x6yvKbN-gAQXvTAyG_4-60" value="&lt;font style=&quot;font-size: 18px;&quot;&gt;Yes&lt;/font&gt;" style="text;html=1;align=center;verticalAlign=middle;resizable=0;points=[];autosize=1;strokeColor=none;fillColor=none;" vertex="1" parent="1">
          <mxGeometry x="390" y="640" width="50" height="40" as="geometry" />
        </mxCell>
      </root>
    </mxGraphModel>
  </diagram>
</mxfile>
